<svg xmlns="http://www.w3.org/2000/svg" width="27.478" height="19.234" viewBox="0 0 27.478 19.234">
  <path id="Icon_awesome-user-friends" data-name="Icon awesome-user-friends" d="M8.243,11.867A4.809,4.809,0,1,0,3.435,7.059,4.806,4.806,0,0,0,8.243,11.867Zm3.3,1.374h-.356a6.639,6.639,0,0,1-5.882,0H4.946A4.947,4.947,0,0,0,0,18.187v1.236a2.061,2.061,0,0,0,2.061,2.061H14.426a2.061,2.061,0,0,0,2.061-2.061V18.187A4.947,4.947,0,0,0,11.541,13.241Zm9.068-1.374a4.122,4.122,0,1,0-4.122-4.122A4.123,4.123,0,0,0,20.608,11.867Zm2.061,1.374h-.163a5.414,5.414,0,0,1-3.8,0h-.163a4.769,4.769,0,0,0-2.391.661,6.283,6.283,0,0,1,1.7,4.285v1.649c0,.094-.021.185-.026.275h7.582a2.061,2.061,0,0,0,2.061-2.061A4.806,4.806,0,0,0,22.669,13.241Z" transform="translate(0 -2.25)" opacity="0.44"/>
</svg>
