<svg xmlns="http://www.w3.org/2000/svg" xmlns:xlink="http://www.w3.org/1999/xlink" width="50" height="50" viewBox="0 0 54 54">
  <defs>
    <filter id="Rectangle_80" x="0" y="0" width="54" height="54" filterUnits="userSpaceOnUse">
      <feOffset dy="3" input="SourceAlpha"/>
      <feGaussianBlur stdDeviation="4" result="blur"/>
      <feFlood flood-opacity="0.149"/>
      <feComposite operator="in" in2="blur"/>
      <feComposite in="SourceGraphic"/>
    </filter>
    <linearGradient id="linear-gradient" x1="0.431" y1="-1.309" x2="0.387" y2="3.205" gradientUnits="objectBoundingBox">
      <stop offset="0" stop-color="#4f9ee8"/>
      <stop offset="1" stop-color="#4f9ee8"/>
    </linearGradient>
  </defs>
  <g id="Group_88" data-name="Group 88" transform="translate(-1752 -318)">
    <g transform="matrix(1, 0, 0, 1, 1752, 318)" filter="url(#Rectangle_80)">
      <rect id="Rectangle_80-2" data-name="Rectangle 80" width="30" height="30" rx="4" transform="translate(12 9)" fill="#fff"/>
    </g>
    <path id="Icon_awesome-edit" data-name="Icon awesome-edit" d="M12.421,2.571,15.2,5.353a.3.3,0,0,1,0,.426L8.465,12.517,5.6,12.835a.6.6,0,0,1-.663-.663l.318-2.863,6.738-6.738A.3.3,0,0,1,12.421,2.571Zm5-.706L15.913.359a1.207,1.207,0,0,0-1.7,0L13.118,1.451a.3.3,0,0,0,0,.426L15.9,4.659a.3.3,0,0,0,.426,0l1.092-1.092a1.207,1.207,0,0,0,0-1.7Zm-5.572,8.82v3.141H1.974V3.953h7.09a.379.379,0,0,0,.262-.108L10.56,2.611a.37.37,0,0,0-.262-.632H1.481A1.481,1.481,0,0,0,0,3.459V14.319A1.481,1.481,0,0,0,1.481,15.8H12.34a1.481,1.481,0,0,0,1.481-1.481V9.45a.371.371,0,0,0-.632-.262l-1.234,1.234A.379.379,0,0,0,11.847,10.684Z" transform="translate(1770 333.993)" fill="url(#linear-gradient)"/>
  </g>
</svg>
