<svg xmlns="http://www.w3.org/2000/svg" width="26.685" height="21.349" viewBox="0 0 26.685 21.349">
  <path id="Icon_awesome-user-edit" data-name="Icon awesome-user-edit" d="M9.34,10.674A5.337,5.337,0,1,0,4,5.337,5.337,5.337,0,0,0,9.34,10.674Zm3.736,1.334h-.7a7.258,7.258,0,0,1-6.079,0H5.6a5.606,5.606,0,0,0-5.6,5.6v1.735a2,2,0,0,0,2,2H13.464a2,2,0,0,1-.108-.888l.284-2.539.05-.463.329-.329,3.223-3.223a5.547,5.547,0,0,0-4.166-1.9Zm1.889,6.059-.284,2.544a.664.664,0,0,0,.734.734l2.539-.284,5.75-5.75-2.99-2.99-5.75,5.746Zm11.429-6.855-1.58-1.58a1,1,0,0,0-1.409,0l-1.576,1.576-.171.171,2.994,2.99,1.743-1.743a1,1,0,0,0,0-1.414Z" fill="#535d67"/>
</svg>
