<svg xmlns="http://www.w3.org/2000/svg" xmlns:xlink="http://www.w3.org/1999/xlink" width="10" height="10" viewBox="0 0 596 521">
  <defs>
    <filter id="Rectangle_29" x="0" y="0" width="596" height="521" filterUnits="userSpaceOnUse">
      <feOffset dy="3" input="SourceAlpha"/>
      <feGaussianBlur stdDeviation="44.5" result="blur"/>
      <feFlood flood-opacity="0.051"/>
      <feComposite operator="in" in2="blur"/>
      <feComposite in="SourceGraphic"/>
    </filter>
  </defs>
  <g id="Group_80" data-name="Group 80" transform="translate(-1005.5 -202.5)">
    <g transform="matrix(1, 0, 0, 1, 1005.5, 202.5)" filter="url(#Rectangle_29)">
      <rect id="Rectangle_29-2" data-name="Rectangle 29" width="329" height="254" rx="6" transform="translate(133.5 130.5)" fill="#e9eaef" opacity="0.9"/>
    </g>
    <text id="Markers_Processed" data-name="Markers Processed" transform="translate(1194 378)" font-size="24" font-family="Helvetica"><tspan x="0" y="0">Markers Processed</tspan></text>
    <text id="_389" data-name="389" transform="translate(1282 477)" font-size="24" font-family="Rubik-Regular, Rubik"><tspan x="0" y="0">389</tspan></text>
    <g id="Ellipse_11" data-name="Ellipse 11" transform="translate(1979.766 512.718) rotate(120)">
      <path id="Path_36" data-name="Path 36" d="M361.95,606.83a61.5,61.5,0,0,1-123,0h.5a61,61,0,1,0,61-61v-.5A61.507,61.507,0,0,1,361.95,606.83Z" fill="none" stroke="#abb4d4" stroke-miterlimit="10" stroke-width="16"/>
    </g>
    <g id="Ellipse_11-2" data-name="Ellipse 11" transform="translate(1004.05 -137.33)">
      <path id="Path_36-2" data-name="Path 36" d="M361.95,606.83a61.5,61.5,0,0,1-123,0h.5a61,61,0,1,0,61-61v-.5A61.507,61.507,0,0,1,361.95,606.83Z" fill="none" stroke="#148ea4" stroke-miterlimit="10" stroke-width="16"/>
    </g>
  </g>
</svg>
