<svg xmlns="http://www.w3.org/2000/svg" width="35.171" height="23.448" viewBox="0 0 35.171 23.448">
  <path id="Icon_awesome-newspaper" data-name="Icon awesome-newspaper" d="M33.706,4.5H5.373A1.465,1.465,0,0,0,3.908,5.965v.488H1.465A1.465,1.465,0,0,0,0,7.919V24.528a3.419,3.419,0,0,0,3.419,3.419H32.24a2.931,2.931,0,0,0,2.931-2.931V5.965A1.465,1.465,0,0,0,33.706,4.5ZM3.419,25.017a.488.488,0,0,1-.488-.488V9.385h.977V24.528A.488.488,0,0,1,3.419,25.017Zm14.41-.977H8.549a.733.733,0,0,1-.733-.733v-.488a.733.733,0,0,1,.733-.733H17.83a.733.733,0,0,1,.733.733v.488A.733.733,0,0,1,17.83,24.04Zm12.7,0H21.249a.733.733,0,0,1-.733-.733v-.488a.733.733,0,0,1,.733-.733h9.281a.733.733,0,0,1,.733.733v.488A.733.733,0,0,1,30.531,24.04Zm-12.7-5.862H8.549a.733.733,0,0,1-.733-.733v-.488a.733.733,0,0,1,.733-.733H17.83a.733.733,0,0,1,.733.733v.488A.733.733,0,0,1,17.83,18.178Zm12.7,0H21.249a.733.733,0,0,1-.733-.733v-.488a.733.733,0,0,1,.733-.733h9.281a.733.733,0,0,1,.733.733v.488A.733.733,0,0,1,30.531,18.178Zm0-5.862H8.549a.733.733,0,0,1-.733-.733V9.141a.733.733,0,0,1,.733-.733H30.531a.733.733,0,0,1,.733.733v2.442A.733.733,0,0,1,30.531,12.316Z" transform="translate(0 -4.5)" fill="#abb4d4"/>
</svg>
