<svg xmlns="http://www.w3.org/2000/svg" width="29.613" height="29.613" viewBox="0 0 29.613 29.613">
  <g id="Icon_feather-settings" data-name="Icon feather-settings" transform="translate(-0.5 -0.5)" opacity="0.44">
    <path id="Path_25" data-name="Path 25" d="M21.031,17.265A3.765,3.765,0,1,1,17.265,13.5,3.765,3.765,0,0,1,21.031,17.265Z" transform="translate(-1.959 -1.959)" fill="none" stroke="#000" stroke-linecap="round" stroke-linejoin="round" stroke-width="2"/>
    <path id="Path_26" data-name="Path 26" d="M24.595,19.072a2.071,2.071,0,0,0,.414,2.284l.075.075a2.512,2.512,0,1,1-3.552,3.552l-.075-.075a2.088,2.088,0,0,0-3.54,1.481V26.6a2.51,2.51,0,0,1-5.021,0V26.49a2.071,2.071,0,0,0-1.356-1.9,2.071,2.071,0,0,0-2.284.414l-.075.075a2.512,2.512,0,1,1-3.552-3.552l.075-.075a2.088,2.088,0,0,0-1.481-3.54H4.01a2.51,2.51,0,0,1,0-5.021h.113a2.071,2.071,0,0,0,1.9-1.356A2.071,2.071,0,0,0,5.6,9.257l-.075-.075A2.512,2.512,0,1,1,9.081,5.629l.075.075a2.071,2.071,0,0,0,2.284.414h.1a2.071,2.071,0,0,0,1.255-1.9V4.01a2.51,2.51,0,1,1,5.021,0v.113A2.088,2.088,0,0,0,21.357,5.6l.075-.075a2.512,2.512,0,1,1,3.552,3.552l-.075.075a2.071,2.071,0,0,0-.414,2.284v.1a2.071,2.071,0,0,0,1.9,1.255H26.6a2.51,2.51,0,0,1,0,5.021H26.49a2.071,2.071,0,0,0-1.9,1.255Z" transform="translate(0 0)" fill="none" stroke="#000" stroke-linecap="round" stroke-linejoin="round" stroke-width="2"/>
  </g>
</svg>
