<svg xmlns="http://www.w3.org/2000/svg" width="40.743" height="28.52" viewBox="0 0 40.743 28.52">
  <path id="Icon_awesome-user-friends" data-name="Icon awesome-user-friends" d="M12.223,16.51a7.13,7.13,0,1,0-7.13-7.13A7.126,7.126,0,0,0,12.223,16.51Zm4.889,2.037h-.528a9.844,9.844,0,0,1-8.721,0H7.334A7.336,7.336,0,0,0,0,25.881v1.833A3.056,3.056,0,0,0,3.056,30.77H21.39a3.056,3.056,0,0,0,3.056-3.056V25.881A7.336,7.336,0,0,0,17.112,18.547ZM30.557,16.51A6.111,6.111,0,1,0,24.446,10.4,6.113,6.113,0,0,0,30.557,16.51Zm3.056,2.037h-.242a8.028,8.028,0,0,1-5.628,0H27.5a7.071,7.071,0,0,0-3.546.98,9.316,9.316,0,0,1,2.527,6.353v2.445c0,.14-.032.274-.038.407H37.687a3.056,3.056,0,0,0,3.056-3.056A7.126,7.126,0,0,0,33.613,18.547Z" transform="translate(0 -2.25)" fill="#4e57a9"/>
</svg>
