<svg xmlns="http://www.w3.org/2000/svg" xmlns:xlink="http://www.w3.org/1999/xlink" width="50" height="50" viewBox="0 0 54 54">
  <defs>
    <filter id="Rectangle_79" x="0" y="0" width="54" height="54" filterUnits="userSpaceOnUse">
      <feOffset dy="3" input="SourceAlpha"/>
      <feGaussianBlur stdDeviation="4" result="blur"/>
      <feFlood flood-opacity="0.149"/>
      <feComposite operator="in" in2="blur"/>
      <feComposite in="SourceGraphic"/>
    </filter>
  </defs>
  <g id="Group_88" data-name="Group 88" transform="translate(-1798 -318)">
    <g transform="matrix(1, 0, 0, 1, 1798, 318)" filter="url(#Rectangle_79)">
      <rect id="Rectangle_79-2" data-name="Rectangle 79" width="30" height="30" rx="4" transform="translate(12 9)" fill="#fff"/>
    </g>
    <path id="Icon_awesome-trash" data-name="Icon awesome-trash" d="M280.907,191.7l-4.711.4-.432-.7a.946.946,0,0,0-.888-.451l-4.488.38a.934.934,0,0,0-.793.593l-.309.765-4.712.4a.63.63,0,0,0-.575.681l.107,1.256a.631.631,0,0,0,.681.576l16.333-1.384a.63.63,0,0,0,.575-.681l-.106-1.256A.631.631,0,0,0,280.907,191.7Zm-14.843,17.829a1.891,1.891,0,0,0,1.887,1.773h9.684a1.891,1.891,0,0,0,1.887-1.773l.836-13.357h-15.13Z" transform="translate(1552.003 141.058)" fill="#be214c"/>
  </g>
</svg>
